# xmcd
#
# Track frame offsets: 
#        150
#        9280
#        24825
#        38890
#        56562
#        70680
#        85692
#        100562
#        113400
#        125065
#        138057
#        151997
#
# Disc length: 2257 seconds
#
# Revision: 0
# Processed by: cddbd v1.4PL0 Copyright (c) Steve Scherf et al.
# Submitted via: ExactAudioCopy v0.95a3
#
DISCID=8008cf0c
DTITLE=Floyd Cramer - Floyd Cramer Plays His All-Time Favorites (2 of 
DTITLE=3)
DYEAR=1998
DGENRE=Country
TTITLE0=San Antonio Rose
TTITLE1=You Needed Me
TTITLE2=The Twelfth Of Never
TTITLE3=Unforgettable
TTITLE4=Can't Help Falling In Love
TTITLE5=I Really Don't Want To Know
TTITLE6=Morning Has Broken
TTITLE7=The Way We Were
TTITLE8=My Cup Runneth Over
TTITLE9=(They Long To Be) Close To You
TTITLE10=I Only Have Eyes For You
TTITLE11=Lullabye
EXTD=
EXTT0=
EXTT1=
EXTT2=
EXTT3=
EXTT4=
EXTT5=
EXTT6=
EXTT7=
EXTT8=
EXTT9=
EXTT10=
EXTT11=
PLAYORDER=
